<?xml version="1.0" encoding="utf-8"?>
<svg xmlns="http://www.w3.org/2000/svg" xmlns:xlink="http://www.w3.org/1999/xlink" width="600" height="400" viewBox="0 0 2400 1600">
<defs>
  <clipPath id="clip6500">
    <rect x="0" y="0" width="2400" height="1600"/>
  </clipPath>
</defs>
<path clip-path="url(#clip6500)" d="
M0 1600 L2400 1600 L2400 0 L0 0  Z
  " fill="#ffffff" fill-rule="evenodd" fill-opacity="1"/>
<defs>
  <clipPath id="clip6501">
    <rect x="480" y="0" width="1681" height="1600"/>
  </clipPath>
</defs>
<path clip-path="url(#clip6500)" d="
M482.992 1521.01 L1956.76 1521.01 L1956.76 47.2441 L482.992 47.2441  Z
  " fill="#ffffff" fill-rule="evenodd" fill-opacity="1"/>
<defs>
  <clipPath id="clip6502">
    <rect x="482" y="47" width="1475" height="1475"/>
  </clipPath>
</defs>
<polyline clip-path="url(#clip6502)" style="stroke:#d968a2; stroke-width:4; stroke-opacity:1; fill:none" points="
  1615.45,257.782 1615.47,267.142 1615.52,276.7 1615.62,286.441 1615.74,296.351 1615.9,306.414 1616.08,316.617 1616.29,326.944 1616.52,337.381 1616.76,347.913 
  1617.02,358.526 1617.3,369.205 1617.58,379.934 1617.87,390.701 1618.17,401.49 1618.47,412.285 1618.76,423.074 1619.05,433.84 1619.34,444.57 1619.61,455.249 
  1619.87,465.862 1620.12,476.394 1620.35,486.831 1620.55,497.158 1620.74,507.361 1620.89,517.424 1621.02,527.334 1621.11,537.075 1621.17,546.633 1621.19,555.993 
  
  "/>
<polyline clip-path="url(#clip6502)" style="stroke:#d968a2; stroke-width:4; stroke-opacity:1; fill:none" points="
  1621.19,555.993 1619.91,563.491 1616.21,570.49 1610.26,577.029 1602.24,583.142 1592.32,588.869 1580.7,594.245 1567.55,599.307 1553.05,604.092 1537.38,608.637 
  1520.72,612.98 1503.25,617.156 1485.15,621.203 1466.6,625.158 1447.79,629.058 1428.88,632.939 1410.06,636.838 1391.51,640.793 1373.41,644.84 1355.94,649.017 
  1339.28,653.359 1323.61,657.905 1309.11,662.69 1295.96,667.752 1284.34,673.128 1274.43,678.854 1266.41,684.968 1260.45,691.506 1256.75,698.506 1255.47,706.003 
  
  "/>
<polyline clip-path="url(#clip6502)" style="stroke:#d968a2; stroke-width:4; stroke-opacity:1; fill:none" points="
  1255.47,706.003 1255.52,717.706 1255.66,729.654 1255.89,741.83 1256.19,754.215 1256.56,766.792 1257,779.542 1257.5,792.447 1258.04,805.489 1258.63,818.649 
  1259.26,831.909 1259.92,845.251 1260.6,858.658 1261.3,872.109 1262.01,885.588 1262.72,899.076 1263.43,912.555 1264.13,926.007 1264.81,939.413 1265.47,952.755 
  1266.1,966.015 1266.69,979.175 1267.24,992.217 1267.73,1005.12 1268.17,1017.87 1268.55,1030.45 1268.85,1042.83 1269.07,1055.01 1269.21,1066.96 1269.26,1078.66 
  
  "/>
<polyline clip-path="url(#clip6502)" style="stroke:#d968a2; stroke-width:4; stroke-opacity:1; fill:none" points="
  1269.26,1078.66 1267.25,1085.33 1261.42,1091.55 1252.05,1097.36 1239.42,1102.79 1223.82,1107.88 1205.52,1112.66 1184.82,1117.16 1161.99,1121.42 1137.33,1125.46 
  1111.1,1129.32 1083.6,1133.03 1055.11,1136.63 1025.9,1140.14 996.279,1143.61 966.511,1147.06 936.886,1150.53 907.685,1154.04 879.192,1157.64 851.691,1161.35 
  825.465,1165.21 800.796,1169.25 777.969,1173.51 757.266,1178.01 738.972,1182.78 723.368,1187.87 710.739,1193.31 701.367,1199.12 695.536,1205.34 693.53,1212.01 
  
  "/>
<polyline clip-path="url(#clip6502)" style="stroke:#d968a2; stroke-width:4; stroke-opacity:1; fill:none" points="
  1269.26,1078.66 1268.13,1085.24 1264.87,1091.38 1259.61,1097.12 1252.53,1102.49 1243.78,1107.51 1233.52,1112.23 1221.92,1116.67 1209.12,1120.87 1195.28,1124.86 
  1180.58,1128.67 1165.16,1132.34 1149.18,1135.89 1132.81,1139.36 1116.2,1142.79 1099.51,1146.19 1082.9,1149.61 1066.53,1153.09 1050.55,1156.64 1035.13,1160.3 
  1020.42,1164.11 1006.59,1168.1 993.794,1172.3 982.186,1176.75 971.928,1181.46 963.179,1186.49 956.098,1191.85 950.843,1197.59 947.574,1203.74 946.449,1210.32 
  
  "/>
<polyline clip-path="url(#clip6502)" style="stroke:#d968a2; stroke-width:4; stroke-opacity:1; fill:none" points="
  1269.26,1078.66 1270.92,1090.25 1275.75,1101.06 1283.52,1111.17 1293.98,1120.61 1306.91,1129.46 1322.06,1137.77 1339.21,1145.59 1358.12,1152.99 1378.56,1160.01 
  1400.29,1166.72 1423.07,1173.18 1446.67,1179.43 1470.87,1185.54 1495.41,1191.57 1520.07,1197.56 1544.61,1203.59 1568.8,1209.7 1592.41,1215.96 1615.19,1222.41 
  1636.92,1229.12 1657.35,1236.14 1676.27,1243.54 1693.42,1251.36 1708.57,1259.67 1721.5,1268.52 1731.96,1277.96 1739.73,1288.07 1744.56,1298.88 1746.22,1310.47 
  
  "/>
<polyline clip-path="url(#clip6502)" style="stroke:#d968a2; stroke-width:4; stroke-opacity:1; fill:none" points="
  1269.26,1078.66 1270.2,1086.87 1272.92,1094.53 1277.29,1101.69 1283.19,1108.38 1290.47,1114.65 1299.02,1120.54 1308.68,1126.08 1319.34,1131.32 1330.85,1136.3 
  1343.1,1141.05 1355.94,1145.62 1369.24,1150.05 1382.87,1154.38 1396.7,1158.65 1410.6,1162.9 1424.43,1167.17 1438.06,1171.5 1451.36,1175.93 1464.2,1180.5 
  1476.45,1185.26 1487.96,1190.24 1498.62,1195.47 1508.28,1201.02 1516.83,1206.9 1524.11,1213.17 1530.01,1219.86 1534.38,1227.02 1537.1,1234.69 1538.04,1242.89 
  
  "/>
<path clip-path="url(#clip6502)" d="
M1642.83 257.782 L1629.14 234.071 L1601.76 234.071 L1588.07 257.782 L1601.76 281.493 L1629.14 281.493 L1642.83 257.782 L1642.83 257.782  Z
  " fill="#009af9" fill-rule="evenodd" fill-opacity="1"/>
<polyline clip-path="url(#clip6502)" style="stroke:#000000; stroke-width:0; stroke-opacity:0; fill:none" points="
  1642.83,257.782 1629.14,234.071 1601.76,234.071 1588.07,257.782 1601.76,281.493 1629.14,281.493 1642.83,257.782 
  "/>
<path clip-path="url(#clip6502)" d="
M1668.86 555.993 L1645.02 514.71 L1597.35 514.71 L1573.52 555.993 L1597.35 597.277 L1645.02 597.277 L1668.86 555.993 L1668.86 555.993  Z
  " fill="#009af9" fill-rule="evenodd" fill-opacity="1"/>
<polyline clip-path="url(#clip6502)" style="stroke:#000000; stroke-width:0; stroke-opacity:0; fill:none" points="
  1668.86,555.993 1645.02,514.71 1597.35,514.71 1573.52,555.993 1597.35,597.277 1645.02,597.277 1668.86,555.993 
  "/>
<path clip-path="url(#clip6502)" d="
M1289.94 706.003 L1272.71 676.156 L1238.24 676.156 L1221.01 706.003 L1238.24 735.85 L1272.71 735.85 L1289.94 706.003 L1289.94 706.003  Z
  " fill="#009af9" fill-rule="evenodd" fill-opacity="1"/>
<polyline clip-path="url(#clip6502)" style="stroke:#000000; stroke-width:0; stroke-opacity:0; fill:none" points="
  1289.94,706.003 1272.71,676.156 1238.24,676.156 1221.01,706.003 1238.24,735.85 1272.71,735.85 1289.94,706.003 
  "/>
<path clip-path="url(#clip6502)" d="
M1357.75 1078.66 L1313.5 1002.03 L1225.02 1002.03 L1180.77 1078.66 L1225.02 1155.29 L1313.5 1155.29 L1357.75 1078.66 L1357.75 1078.66  Z
  " fill="#009af9" fill-rule="evenodd" fill-opacity="1"/>
<polyline clip-path="url(#clip6502)" style="stroke:#000000; stroke-width:0; stroke-opacity:0; fill:none" points="
  1357.75,1078.66 1313.5,1002.03 1225.02,1002.03 1180.77,1078.66 1225.02,1155.29 1313.5,1155.29 1357.75,1078.66 
  "/>
<path clip-path="url(#clip6502)" d="
M753.536 1212.01 L723.533 1160.04 L663.527 1160.04 L633.524 1212.01 L663.527 1263.98 L723.533 1263.98 L753.536 1212.01 L753.536 1212.01  Z
  " fill="#009af9" fill-rule="evenodd" fill-opacity="1"/>
<polyline clip-path="url(#clip6502)" style="stroke:#000000; stroke-width:0; stroke-opacity:0; fill:none" points="
  753.536,1212.01 723.533,1160.04 663.527,1160.04 633.524,1212.01 663.527,1263.98 723.533,1263.98 753.536,1212.01 
  "/>
<path clip-path="url(#clip6502)" d="
M1000.38 1210.32 L973.412 1163.61 L919.486 1163.61 L892.523 1210.32 L919.486 1257.02 L973.412 1257.02 L1000.38 1210.32 L1000.38 1210.32  Z
  " fill="#009af9" fill-rule="evenodd" fill-opacity="1"/>
<polyline clip-path="url(#clip6502)" style="stroke:#000000; stroke-width:0; stroke-opacity:0; fill:none" points="
  1000.38,1210.32 973.412,1163.61 919.486,1163.61 892.523,1210.32 919.486,1257.02 973.412,1257.02 1000.38,1210.32 
  "/>
<path clip-path="url(#clip6502)" d="
M1800.14 1310.47 L1773.18 1263.77 L1719.25 1263.77 L1692.29 1310.47 L1719.25 1357.17 L1773.18 1357.17 L1800.14 1310.47 L1800.14 1310.47  Z
  " fill="#009af9" fill-rule="evenodd" fill-opacity="1"/>
<polyline clip-path="url(#clip6502)" style="stroke:#000000; stroke-width:0; stroke-opacity:0; fill:none" points="
  1800.14,1310.47 1773.18,1263.77 1719.25,1263.77 1692.29,1310.47 1719.25,1357.17 1773.18,1357.17 1800.14,1310.47 
  "/>
<path clip-path="url(#clip6502)" d="
M1591.97 1242.89 L1565 1196.19 L1511.08 1196.19 L1484.11 1242.89 L1511.08 1289.6 L1565 1289.6 L1591.97 1242.89 L1591.97 1242.89  Z
  " fill="#009af9" fill-rule="evenodd" fill-opacity="1"/>
<polyline clip-path="url(#clip6502)" style="stroke:#000000; stroke-width:0; stroke-opacity:0; fill:none" points="
  1591.97,1242.89 1565,1196.19 1511.08,1196.19 1484.11,1242.89 1511.08,1289.6 1565,1289.6 1591.97,1242.89 
  "/>
<circle clip-path="url(#clip6502)" style="fill:#00a98d; stroke:none; fill-opacity:0" cx="1615.45" cy="257.782" r="2"/>
<circle clip-path="url(#clip6502)" style="fill:#00a98d; stroke:none; fill-opacity:0" cx="1621.19" cy="555.993" r="2"/>
<circle clip-path="url(#clip6502)" style="fill:#00a98d; stroke:none; fill-opacity:0" cx="1255.47" cy="706.003" r="2"/>
<circle clip-path="url(#clip6502)" style="fill:#00a98d; stroke:none; fill-opacity:0" cx="1269.26" cy="1078.66" r="2"/>
<circle clip-path="url(#clip6502)" style="fill:#00a98d; stroke:none; fill-opacity:0" cx="693.53" cy="1212.01" r="2"/>
<circle clip-path="url(#clip6502)" style="fill:#00a98d; stroke:none; fill-opacity:0" cx="946.449" cy="1210.32" r="2"/>
<circle clip-path="url(#clip6502)" style="fill:#00a98d; stroke:none; fill-opacity:0" cx="1746.22" cy="1310.47" r="2"/>
<circle clip-path="url(#clip6502)" style="fill:#00a98d; stroke:none; fill-opacity:0" cx="1538.04" cy="1242.89" r="2"/>
<g clip-path="url(#clip6500)">
<text style="fill:#000000; fill-opacity:1; font-family:Arial,Helvetica Neue,Helvetica,sans-serif; font-size:23px; text-anchor:middle;" transform="rotate(0, 1615.45, 266.282)" x="1615.45" y="266.282">Any</text>
</g>
<g clip-path="url(#clip6500)">
<text style="fill:#000000; fill-opacity:1; font-family:Arial,Helvetica Neue,Helvetica,sans-serif; font-size:23px; text-anchor:middle;" transform="rotate(0, 1621.19, 564.493)" x="1621.19" y="564.493">Number</text>
</g>
<g clip-path="url(#clip6500)">
<text style="fill:#000000; fill-opacity:1; font-family:Arial,Helvetica Neue,Helvetica,sans-serif; font-size:23px; text-anchor:middle;" transform="rotate(0, 1255.47, 714.503)" x="1255.47" y="714.503">Real</text>
</g>
<g clip-path="url(#clip6500)">
<text style="fill:#000000; fill-opacity:1; font-family:Arial,Helvetica Neue,Helvetica,sans-serif; font-size:23px; text-anchor:middle;" transform="rotate(0, 1269.26, 1087.16)" x="1269.26" y="1087.16">AbstractFloat</text>
</g>
<g clip-path="url(#clip6500)">
<text style="fill:#000000; fill-opacity:1; font-family:Arial,Helvetica Neue,Helvetica,sans-serif; font-size:23px; text-anchor:middle;" transform="rotate(0, 693.53, 1220.51)" x="693.53" y="1220.51">BigFloat</text>
</g>
<g clip-path="url(#clip6500)">
<text style="fill:#000000; fill-opacity:1; font-family:Arial,Helvetica Neue,Helvetica,sans-serif; font-size:23px; text-anchor:middle;" transform="rotate(0, 946.449, 1218.82)" x="946.449" y="1218.82">Float16</text>
</g>
<g clip-path="url(#clip6500)">
<text style="fill:#000000; fill-opacity:1; font-family:Arial,Helvetica Neue,Helvetica,sans-serif; font-size:23px; text-anchor:middle;" transform="rotate(0, 1746.22, 1318.97)" x="1746.22" y="1318.97">Float32</text>
</g>
<g clip-path="url(#clip6500)">
<text style="fill:#000000; fill-opacity:1; font-family:Arial,Helvetica Neue,Helvetica,sans-serif; font-size:23px; text-anchor:middle;" transform="rotate(0, 1538.04, 1251.39)" x="1538.04" y="1251.39">Float64</text>
</g>
</svg>
