<?xml version="1.0" encoding="utf-8"?>
<svg xmlns="http://www.w3.org/2000/svg" xmlns:xlink="http://www.w3.org/1999/xlink" width="600" height="400" viewBox="0 0 2400 1600">
<defs>
  <clipPath id="clip6100">
    <rect x="0" y="0" width="2400" height="1600"/>
  </clipPath>
</defs>
<path clip-path="url(#clip6100)" d="
M0 1600 L2400 1600 L2400 0 L0 0  Z
  " fill="#ffffff" fill-rule="evenodd" fill-opacity="1"/>
<defs>
  <clipPath id="clip6101">
    <rect x="480" y="0" width="1681" height="1600"/>
  </clipPath>
</defs>
<path clip-path="url(#clip6100)" d="
M482.992 1521.01 L1956.76 1521.01 L1956.76 47.2441 L482.992 47.2441  Z
  " fill="#ffffff" fill-rule="evenodd" fill-opacity="1"/>
<defs>
  <clipPath id="clip6102">
    <rect x="482" y="47" width="1475" height="1475"/>
  </clipPath>
</defs>
<polyline clip-path="url(#clip6102)" style="stroke:#d968a2; stroke-width:4; stroke-opacity:1; fill:none" points="
  1197.98,257.782 1198.18,263.433 1198.78,269.139 1199.73,274.897 1201.02,280.702 1202.61,286.551 1204.47,292.438 1206.58,298.36 1208.91,304.313 1211.42,310.293 
  1214.1,316.296 1216.9,322.316 1219.8,328.352 1222.78,334.397 1225.8,340.449 1228.83,346.503 1231.85,352.555 1234.82,358.6 1237.73,364.635 1240.53,370.656 
  1243.2,376.659 1245.71,382.639 1248.04,388.592 1250.15,394.514 1252.01,400.401 1253.6,406.25 1254.89,412.055 1255.85,417.813 1256.44,423.519 1256.64,429.17 
  
  "/>
<polyline clip-path="url(#clip6102)" style="stroke:#d968a2; stroke-width:4; stroke-opacity:1; fill:none" points="
  1256.64,429.17 1256.57,435.458 1256.37,441.872 1256.05,448.403 1255.61,455.042 1255.07,461.78 1254.43,468.606 1253.71,475.513 1252.92,482.489 1252.06,489.527 
  1251.15,496.616 1250.2,503.747 1249.21,510.911 1248.19,518.098 1247.16,525.299 1246.13,532.505 1245.1,539.707 1244.09,546.894 1243.1,554.058 1242.14,561.189 
  1241.23,568.278 1240.38,575.316 1239.58,582.292 1238.86,589.198 1238.23,596.025 1237.69,602.762 1237.25,609.402 1236.92,615.933 1236.72,622.347 1236.65,628.635 
  
  "/>
<polyline clip-path="url(#clip6102)" style="stroke:#d968a2; stroke-width:4; stroke-opacity:1; fill:none" points="
  1236.65,628.635 1236.63,637.415 1236.59,646.381 1236.52,655.519 1236.42,664.814 1236.3,674.255 1236.16,683.825 1236,693.513 1235.82,703.304 1235.63,713.184 
  1235.43,723.14 1235.22,733.157 1235,743.223 1234.78,753.323 1234.55,763.444 1234.32,773.572 1234.09,783.692 1233.87,793.793 1233.65,803.858 1233.44,813.876 
  1233.23,823.832 1233.05,833.712 1232.87,843.503 1232.71,853.19 1232.57,862.761 1232.45,872.201 1232.35,881.497 1232.28,890.635 1232.24,899.601 1232.22,908.381 
  
  "/>
<polyline clip-path="url(#clip6102)" style="stroke:#d968a2; stroke-width:4; stroke-opacity:1; fill:none" points="
  1232.22,908.381 1232.46,913.32 1233.15,918.262 1234.26,923.207 1235.76,928.155 1237.62,933.105 1239.79,938.057 1242.25,943.012 1244.96,947.968 1247.89,952.925 
  1251,957.884 1254.27,962.844 1257.65,967.804 1261.12,972.765 1264.64,977.727 1268.18,982.688 1271.7,987.65 1275.16,992.611 1278.55,997.571 1281.81,1002.53 
  1284.93,1007.49 1287.86,1012.45 1290.57,1017.4 1293.03,1022.36 1295.2,1027.31 1297.05,1032.26 1298.55,1037.21 1299.67,1042.15 1300.36,1047.09 1300.6,1052.03 
  
  "/>
<polyline clip-path="url(#clip6102)" style="stroke:#d968a2; stroke-width:4; stroke-opacity:1; fill:none" points="
  1232.22,908.381 1231.91,913.487 1231.02,918.536 1229.59,923.529 1227.66,928.473 1225.27,933.372 1222.47,938.229 1219.3,943.05 1215.81,947.838 1212.04,952.597 
  1208.03,957.333 1203.82,962.05 1199.46,966.751 1195,971.441 1190.47,976.125 1185.91,980.807 1181.38,985.491 1176.92,990.181 1172.56,994.882 1168.35,999.598 
  1164.34,1004.33 1160.57,1009.09 1157.08,1013.88 1153.91,1018.7 1151.11,1023.56 1148.73,1028.46 1146.79,1033.4 1145.36,1038.4 1144.47,1043.44 1144.16,1048.55 
  
  "/>
<polyline clip-path="url(#clip6102)" style="stroke:#d968a2; stroke-width:4; stroke-opacity:1; fill:none" points="
  1232.22,908.381 1233.13,916.445 1235.79,923.973 1240.05,931.005 1245.81,937.58 1252.91,943.739 1261.24,949.521 1270.67,954.965 1281.06,960.111 1292.29,965 
  1304.23,969.67 1316.75,974.162 1329.73,978.515 1343.02,982.768 1356.51,986.962 1370.06,991.137 1383.55,995.331 1396.85,999.584 1409.82,1003.94 1422.34,1008.43 
  1434.28,1013.1 1445.51,1017.99 1455.91,1023.13 1465.33,1028.58 1473.66,1034.36 1480.77,1040.52 1486.52,1047.09 1490.79,1054.13 1493.44,1061.65 1494.35,1069.72 
  
  "/>
<polyline clip-path="url(#clip6102)" style="stroke:#d968a2; stroke-width:4; stroke-opacity:1; fill:none" points="
  1494.35,1069.72 1494.76,1077.22 1495.92,1084.68 1497.8,1092.12 1500.33,1099.53 1503.46,1106.91 1507.13,1114.27 1511.28,1121.6 1515.85,1128.92 1520.79,1136.22 
  1526.05,1143.51 1531.56,1150.79 1537.27,1158.06 1543.12,1165.32 1549.06,1172.58 1555.03,1179.84 1560.96,1187.1 1566.82,1194.36 1572.53,1201.63 1578.04,1208.9 
  1583.29,1216.19 1588.24,1223.49 1592.81,1230.81 1596.96,1238.15 1600.63,1245.51 1603.75,1252.89 1606.29,1260.3 1608.16,1267.73 1609.33,1275.2 1609.73,1282.7 
  
  "/>
<polyline clip-path="url(#clip6102)" style="stroke:#d968a2; stroke-width:4; stroke-opacity:1; fill:none" points="
  1494.35,1069.72 1495.23,1077.77 1497.78,1085.28 1501.88,1092.3 1507.41,1098.87 1514.23,1105.02 1522.24,1110.79 1531.29,1116.22 1541.28,1121.36 1552.07,1126.24 
  1563.54,1130.9 1575.58,1135.39 1588.04,1139.73 1600.81,1143.98 1613.78,1148.17 1626.8,1152.33 1639.76,1156.52 1652.53,1160.77 1665,1165.11 1677.03,1169.6 
  1688.5,1174.26 1699.29,1179.14 1709.28,1184.28 1718.34,1189.71 1726.34,1195.48 1733.16,1201.63 1738.69,1208.19 1742.79,1215.21 1745.34,1222.73 1746.22,1230.78 
  
  "/>
<polyline clip-path="url(#clip6102)" style="stroke:#d968a2; stroke-width:4; stroke-opacity:1; fill:none" points="
  1494.35,1069.72 1494.46,1077.31 1494.75,1085.04 1495.23,1092.92 1495.86,1100.92 1496.65,1109.04 1497.58,1117.26 1498.63,1125.58 1499.79,1133.98 1501.03,1142.45 
  1502.36,1150.98 1503.75,1159.56 1505.2,1168.18 1506.68,1176.83 1508.18,1185.49 1509.68,1194.16 1511.18,1202.82 1512.66,1211.47 1514.1,1220.09 1515.5,1228.67 
  1516.82,1237.21 1518.07,1245.68 1519.23,1254.08 1520.28,1262.39 1521.2,1270.61 1521.99,1278.73 1522.63,1286.73 1523.11,1294.61 1523.4,1302.35 1523.5,1309.93 
  
  "/>
<polyline clip-path="url(#clip6102)" style="stroke:#d968a2; stroke-width:4; stroke-opacity:1; fill:none" points="
  1494.35,1069.72 1493.82,1078.23 1492.27,1086.62 1489.78,1094.9 1486.42,1103.07 1482.27,1111.15 1477.41,1119.14 1471.9,1127.05 1465.83,1134.89 1459.27,1142.67 
  1452.3,1150.4 1444.98,1158.09 1437.41,1165.75 1429.64,1173.39 1421.77,1181.01 1413.85,1188.63 1405.97,1196.25 1398.21,1203.88 1390.63,1211.54 1383.32,1219.23 
  1376.35,1226.97 1369.79,1234.75 1363.72,1242.59 1358.21,1250.5 1353.35,1258.49 1349.2,1266.56 1345.84,1274.73 1343.35,1283.01 1341.8,1291.4 1341.26,1299.92 
  
  "/>
<polyline clip-path="url(#clip6102)" style="stroke:#d968a2; stroke-width:4; stroke-opacity:1; fill:none" points="
  1494.35,1069.72 1494.14,1076.66 1493.53,1083.69 1492.55,1090.81 1491.23,1098.01 1489.59,1105.28 1487.67,1112.61 1485.5,1120 1483.11,1127.44 1480.52,1134.93 
  1477.77,1142.45 1474.89,1150.01 1471.9,1157.59 1468.84,1165.18 1465.73,1172.79 1462.61,1180.4 1459.5,1188 1456.44,1195.6 1453.45,1203.18 1450.57,1210.73 
  1447.82,1218.26 1445.23,1225.74 1442.84,1233.19 1440.67,1240.58 1438.75,1247.91 1437.11,1255.18 1435.79,1262.38 1434.81,1269.49 1434.19,1276.53 1433.98,1283.47 
  
  "/>
<polyline clip-path="url(#clip6102)" style="stroke:#d968a2; stroke-width:4; stroke-opacity:1; fill:none" points="
  1494.35,1069.72 1495.03,1078.19 1496.99,1086.32 1500.15,1094.14 1504.4,1101.68 1509.66,1108.95 1515.82,1115.98 1522.8,1122.81 1530.48,1129.44 1538.79,1135.92 
  1547.63,1142.25 1556.89,1148.48 1566.49,1154.61 1576.32,1160.69 1586.3,1166.73 1596.33,1172.75 1606.31,1178.79 1616.14,1184.86 1625.74,1191 1635,1197.22 
  1643.84,1203.56 1652.15,1210.03 1659.84,1216.67 1666.81,1223.49 1672.97,1230.53 1678.23,1237.8 1682.48,1245.33 1685.64,1253.16 1687.6,1261.29 1688.28,1269.76 
  
  "/>
<polyline clip-path="url(#clip6102)" style="stroke:#d968a2; stroke-width:4; stroke-opacity:1; fill:none" points="
  1232.22,908.381 1231.28,916.652 1228.55,924.374 1224.17,931.587 1218.26,938.332 1210.96,944.649 1202.4,950.579 1192.71,956.164 1182.03,961.443 1170.49,966.457 
  1158.22,971.248 1145.35,975.855 1132.02,980.32 1118.36,984.683 1104.5,988.985 1090.57,993.267 1076.71,997.568 1063.05,1001.93 1049.72,1006.4 1036.85,1011 
  1024.58,1015.79 1013.04,1020.81 1002.36,1026.09 992.675,1031.67 984.115,1037.6 976.815,1043.92 970.906,1050.66 966.522,1057.88 963.794,1065.6 962.855,1073.87 
  
  "/>
<polyline clip-path="url(#clip6102)" style="stroke:#d968a2; stroke-width:4; stroke-opacity:1; fill:none" points="
  962.855,1073.87 962.669,1081.46 962.129,1089.17 961.262,1097 960.093,1104.93 958.649,1112.95 956.956,1121.06 955.04,1129.24 952.927,1137.5 950.644,1145.81 
  948.216,1154.17 945.671,1162.57 943.034,1171.01 940.331,1179.46 937.589,1187.93 934.834,1196.41 932.092,1204.88 929.39,1213.33 926.753,1221.77 924.207,1230.17 
  921.78,1238.53 919.497,1246.84 917.384,1255.1 915.468,1263.28 913.775,1271.39 912.33,1279.41 911.162,1287.34 910.294,1295.17 909.755,1302.88 909.569,1310.47 
  
  "/>
<polyline clip-path="url(#clip6102)" style="stroke:#d968a2; stroke-width:4; stroke-opacity:1; fill:none" points="
  962.855,1073.87 962.459,1079.05 961.308,1084.06 959.457,1088.91 956.964,1093.6 953.884,1098.16 950.272,1102.59 946.185,1106.91 941.679,1111.14 936.809,1115.28 
  931.631,1119.34 926.202,1123.35 920.577,1127.31 914.812,1131.24 908.964,1135.15 903.087,1139.06 897.238,1142.97 891.474,1146.9 885.849,1150.86 880.42,1154.87 
  875.242,1158.93 870.372,1163.07 865.866,1167.29 861.779,1171.62 858.167,1176.05 855.086,1180.61 852.593,1185.3 850.743,1190.14 849.592,1195.15 849.196,1200.34 
  
  "/>
<polyline clip-path="url(#clip6102)" style="stroke:#d968a2; stroke-width:4; stroke-opacity:1; fill:none" points="
  962.855,1073.87 961.916,1080.66 959.188,1086.99 954.804,1092.91 948.897,1098.44 941.597,1103.62 933.039,1108.48 923.354,1113.07 912.676,1117.4 901.136,1121.51 
  888.867,1125.44 876.002,1129.22 862.674,1132.88 849.014,1136.46 835.155,1139.99 821.23,1143.5 807.371,1147.03 793.711,1150.61 780.382,1154.27 767.517,1158.05 
  755.248,1161.98 743.709,1166.09 733.03,1170.42 723.346,1175 714.787,1179.87 707.488,1185.05 701.58,1190.58 697.196,1196.5 694.468,1202.83 693.53,1209.62 
  
  "/>
<polyline clip-path="url(#clip6102)" style="stroke:#d968a2; stroke-width:4; stroke-opacity:1; fill:none" points="
  962.855,1073.87 963.109,1080.81 963.849,1087.81 965.038,1094.87 966.64,1101.99 968.619,1109.16 970.94,1116.38 973.567,1123.64 976.462,1130.93 979.592,1138.26 
  982.919,1145.61 986.408,1152.99 990.022,1160.38 993.727,1167.79 997.485,1175.2 1001.26,1182.61 1005.02,1190.03 1008.72,1197.43 1012.34,1204.82 1015.83,1212.2 
  1019.15,1219.55 1022.28,1226.88 1025.18,1234.17 1027.81,1241.43 1030.13,1248.65 1032.11,1255.82 1033.71,1262.94 1034.9,1270 1035.64,1277.01 1035.89,1283.94 
  
  "/>
<polyline clip-path="url(#clip6102)" style="stroke:#d968a2; stroke-width:4; stroke-opacity:1; fill:none" points="
  962.855,1073.87 962.155,1080.22 960.121,1086.15 956.853,1091.69 952.448,1096.87 947.006,1101.72 940.625,1106.27 933.405,1110.56 925.444,1114.61 916.84,1118.46 
  907.693,1122.14 898.102,1125.68 888.164,1129.11 877.98,1132.46 867.647,1135.76 857.266,1139.05 846.933,1142.35 836.749,1145.7 826.811,1149.13 817.22,1152.67 
  808.073,1156.35 799.469,1160.2 791.508,1164.25 784.288,1168.54 777.907,1173.09 772.465,1177.94 768.06,1183.12 764.792,1188.66 762.758,1194.59 762.058,1200.94 
  
  "/>
<path clip-path="url(#clip6102)" d="
M1216.55 257.782 L1207.27 241.697 L1188.69 241.697 L1179.41 257.782 L1188.69 273.866 L1207.27 273.866 L1216.55 257.782 L1216.55 257.782  Z
  " fill="#009af9" fill-rule="evenodd" fill-opacity="1"/>
<polyline clip-path="url(#clip6102)" style="stroke:#000000; stroke-width:0; stroke-opacity:0; fill:none" points="
  1216.55,257.782 1207.27,241.697 1188.69,241.697 1179.41,257.782 1188.69,273.866 1207.27,273.866 1216.55,257.782 
  "/>
<path clip-path="url(#clip6102)" d="
M1288.98 429.17 L1272.81 401.165 L1240.47 401.165 L1224.31 429.17 L1240.47 457.175 L1272.81 457.175 L1288.98 429.17 L1288.98 429.17  Z
  " fill="#009af9" fill-rule="evenodd" fill-opacity="1"/>
<polyline clip-path="url(#clip6102)" style="stroke:#000000; stroke-width:0; stroke-opacity:0; fill:none" points="
  1288.98,429.17 1272.81,401.165 1240.47,401.165 1224.31,429.17 1240.47,457.175 1272.81,457.175 1288.98,429.17 
  "/>
<path clip-path="url(#clip6102)" d="
M1260.03 628.635 L1248.34 608.388 L1224.96 608.388 L1213.27 628.635 L1224.96 648.882 L1248.34 648.882 L1260.03 628.635 L1260.03 628.635  Z
  " fill="#009af9" fill-rule="evenodd" fill-opacity="1"/>
<polyline clip-path="url(#clip6102)" style="stroke:#000000; stroke-width:0; stroke-opacity:0; fill:none" points="
  1260.03,628.635 1248.34,608.388 1224.96,608.388 1213.27,628.635 1224.96,648.882 1248.34,648.882 1260.03,628.635 
  "/>
<path clip-path="url(#clip6102)" d="
M1268.8 908.381 L1250.51 876.7 L1213.93 876.7 L1195.64 908.381 L1213.93 940.062 L1250.51 940.062 L1268.8 908.381 L1268.8 908.381  Z
  " fill="#009af9" fill-rule="evenodd" fill-opacity="1"/>
<polyline clip-path="url(#clip6102)" style="stroke:#000000; stroke-width:0; stroke-opacity:0; fill:none" points="
  1268.8,908.381 1250.51,876.7 1213.93,876.7 1195.64,908.381 1213.93,940.062 1250.51,940.062 1268.8,908.381 
  "/>
<path clip-path="url(#clip6102)" d="
M1323.98 1052.03 L1312.29 1031.79 L1288.91 1031.79 L1277.22 1052.03 L1288.91 1072.28 L1312.29 1072.28 L1323.98 1052.03 L1323.98 1052.03  Z
  " fill="#009af9" fill-rule="evenodd" fill-opacity="1"/>
<polyline clip-path="url(#clip6102)" style="stroke:#000000; stroke-width:0; stroke-opacity:0; fill:none" points="
  1323.98,1052.03 1312.29,1031.79 1288.91,1031.79 1277.22,1052.03 1288.91,1072.28 1312.29,1072.28 1323.98,1052.03 
  "/>
<path clip-path="url(#clip6102)" d="
M1204.19 1048.55 L1174.17 996.567 L1114.15 996.567 L1084.14 1048.55 L1114.15 1100.53 L1174.17 1100.53 L1204.19 1048.55 L1204.19 1048.55  Z
  " fill="#009af9" fill-rule="evenodd" fill-opacity="1"/>
<polyline clip-path="url(#clip6102)" style="stroke:#000000; stroke-width:0; stroke-opacity:0; fill:none" points="
  1204.19,1048.55 1174.17,996.567 1114.15,996.567 1084.14,1048.55 1114.15,1100.53 1174.17,1100.53 1204.19,1048.55 
  "/>
<path clip-path="url(#clip6102)" d="
M1526.69 1069.72 L1510.52 1041.71 L1478.19 1041.71 L1462.02 1069.72 L1478.19 1097.72 L1510.52 1097.72 L1526.69 1069.72 L1526.69 1069.72  Z
  " fill="#009af9" fill-rule="evenodd" fill-opacity="1"/>
<polyline clip-path="url(#clip6102)" style="stroke:#000000; stroke-width:0; stroke-opacity:0; fill:none" points="
  1526.69,1069.72 1510.52,1041.71 1478.19,1041.71 1462.02,1069.72 1478.19,1097.72 1510.52,1097.72 1526.69,1069.72 
  "/>
<path clip-path="url(#clip6102)" d="
M1642.07 1282.7 L1625.9 1254.69 L1593.57 1254.69 L1577.4 1282.7 L1593.57 1310.7 L1625.9 1310.7 L1642.07 1282.7 L1642.07 1282.7  Z
  " fill="#009af9" fill-rule="evenodd" fill-opacity="1"/>
<polyline clip-path="url(#clip6102)" style="stroke:#000000; stroke-width:0; stroke-opacity:0; fill:none" points="
  1642.07,1282.7 1625.9,1254.69 1593.57,1254.69 1577.4,1282.7 1593.57,1310.7 1625.9,1310.7 1642.07,1282.7 
  "/>
<path clip-path="url(#clip6102)" d="
M1778.56 1230.78 L1762.39 1202.78 L1730.05 1202.78 L1713.88 1230.78 L1730.05 1258.79 L1762.39 1258.79 L1778.56 1230.78 L1778.56 1230.78  Z
  " fill="#009af9" fill-rule="evenodd" fill-opacity="1"/>
<polyline clip-path="url(#clip6102)" style="stroke:#000000; stroke-width:0; stroke-opacity:0; fill:none" points="
  1778.56,1230.78 1762.39,1202.78 1730.05,1202.78 1713.88,1230.78 1730.05,1258.79 1762.39,1258.79 1778.56,1230.78 
  "/>
<path clip-path="url(#clip6102)" d="
M1551.45 1309.93 L1537.48 1285.73 L1509.53 1285.73 L1495.55 1309.93 L1509.53 1334.14 L1537.48 1334.14 L1551.45 1309.93 L1551.45 1309.93  Z
  " fill="#009af9" fill-rule="evenodd" fill-opacity="1"/>
<polyline clip-path="url(#clip6102)" style="stroke:#000000; stroke-width:0; stroke-opacity:0; fill:none" points="
  1551.45,1309.93 1537.48,1285.73 1509.53,1285.73 1495.55,1309.93 1509.53,1334.14 1537.48,1334.14 1551.45,1309.93 
  "/>
<path clip-path="url(#clip6102)" d="
M1369.21 1299.92 L1355.24 1275.71 L1327.29 1275.71 L1313.31 1299.92 L1327.29 1324.12 L1355.24 1324.12 L1369.21 1299.92 L1369.21 1299.92  Z
  " fill="#009af9" fill-rule="evenodd" fill-opacity="1"/>
<polyline clip-path="url(#clip6102)" style="stroke:#000000; stroke-width:0; stroke-opacity:0; fill:none" points="
  1369.21,1299.92 1355.24,1275.71 1327.29,1275.71 1313.31,1299.92 1327.29,1324.12 1355.24,1324.12 1369.21,1299.92 
  "/>
<path clip-path="url(#clip6102)" d="
M1461.93 1283.47 L1447.96 1259.26 L1420.01 1259.26 L1406.03 1283.47 L1420.01 1307.67 L1447.96 1307.67 L1461.93 1283.47 L1461.93 1283.47  Z
  " fill="#009af9" fill-rule="evenodd" fill-opacity="1"/>
<polyline clip-path="url(#clip6102)" style="stroke:#000000; stroke-width:0; stroke-opacity:0; fill:none" points="
  1461.93,1283.47 1447.96,1259.26 1420.01,1259.26 1406.03,1283.47 1420.01,1307.67 1447.96,1307.67 1461.93,1283.47 
  "/>
<path clip-path="url(#clip6102)" d="
M1711.66 1269.76 L1699.97 1249.51 L1676.59 1249.51 L1664.9 1269.76 L1676.59 1290.01 L1699.97 1290.01 L1711.66 1269.76 L1711.66 1269.76  Z
  " fill="#009af9" fill-rule="evenodd" fill-opacity="1"/>
<polyline clip-path="url(#clip6102)" style="stroke:#000000; stroke-width:0; stroke-opacity:0; fill:none" points="
  1711.66,1269.76 1699.97,1249.51 1676.59,1249.51 1664.9,1269.76 1676.59,1290.01 1699.97,1290.01 1711.66,1269.76 
  "/>
<path clip-path="url(#clip6102)" d="
M1003.56 1073.87 L983.208 1038.62 L942.502 1038.62 L922.149 1073.87 L942.502 1109.12 L983.208 1109.12 L1003.56 1073.87 L1003.56 1073.87  Z
  " fill="#009af9" fill-rule="evenodd" fill-opacity="1"/>
<polyline clip-path="url(#clip6102)" style="stroke:#000000; stroke-width:0; stroke-opacity:0; fill:none" points="
  1003.56,1073.87 983.208,1038.62 942.502,1038.62 922.149,1073.87 942.502,1109.12 983.208,1109.12 1003.56,1073.87 
  "/>
<path clip-path="url(#clip6102)" d="
M946.151 1310.47 L927.86 1278.79 L891.278 1278.79 L872.987 1310.47 L891.278 1342.15 L927.86 1342.15 L946.151 1310.47 L946.151 1310.47  Z
  " fill="#009af9" fill-rule="evenodd" fill-opacity="1"/>
<polyline clip-path="url(#clip6102)" style="stroke:#000000; stroke-width:0; stroke-opacity:0; fill:none" points="
  946.151,1310.47 927.86,1278.79 891.278,1278.79 872.987,1310.47 891.278,1342.15 927.86,1342.15 946.151,1310.47 
  "/>
<path clip-path="url(#clip6102)" d="
M881.533 1200.34 L865.365 1172.33 L833.027 1172.33 L816.858 1200.34 L833.027 1228.34 L865.365 1228.34 L881.533 1200.34 L881.533 1200.34  Z
  " fill="#009af9" fill-rule="evenodd" fill-opacity="1"/>
<polyline clip-path="url(#clip6102)" style="stroke:#000000; stroke-width:0; stroke-opacity:0; fill:none" points="
  881.533,1200.34 865.365,1172.33 833.027,1172.33 816.858,1200.34 833.027,1228.34 865.365,1228.34 881.533,1200.34 
  "/>
<path clip-path="url(#clip6102)" d="
M725.867 1209.62 L709.699 1181.61 L677.361 1181.61 L661.192 1209.62 L677.361 1237.62 L709.699 1237.62 L725.867 1209.62 L725.867 1209.62  Z
  " fill="#009af9" fill-rule="evenodd" fill-opacity="1"/>
<polyline clip-path="url(#clip6102)" style="stroke:#000000; stroke-width:0; stroke-opacity:0; fill:none" points="
  725.867,1209.62 709.699,1181.61 677.361,1181.61 661.192,1209.62 677.361,1237.62 709.699,1237.62 725.867,1209.62 
  "/>
<path clip-path="url(#clip6102)" d="
M1068.23 1283.94 L1052.06 1255.94 L1019.72 1255.94 L1003.55 1283.94 L1019.72 1311.95 L1052.06 1311.95 L1068.23 1283.94 L1068.23 1283.94  Z
  " fill="#009af9" fill-rule="evenodd" fill-opacity="1"/>
<polyline clip-path="url(#clip6102)" style="stroke:#000000; stroke-width:0; stroke-opacity:0; fill:none" points="
  1068.23,1283.94 1052.06,1255.94 1019.72,1255.94 1003.55,1283.94 1019.72,1311.95 1052.06,1311.95 1068.23,1283.94 
  "/>
<path clip-path="url(#clip6102)" d="
M790.007 1200.94 L776.033 1176.74 L748.084 1176.74 L734.11 1200.94 L748.084 1225.14 L776.033 1225.14 L790.007 1200.94 L790.007 1200.94  Z
  " fill="#009af9" fill-rule="evenodd" fill-opacity="1"/>
<polyline clip-path="url(#clip6102)" style="stroke:#000000; stroke-width:0; stroke-opacity:0; fill:none" points="
  790.007,1200.94 776.033,1176.74 748.084,1176.74 734.11,1200.94 748.084,1225.14 776.033,1225.14 790.007,1200.94 
  "/>
<circle clip-path="url(#clip6102)" style="fill:#af78dd; stroke:none; fill-opacity:0" cx="1197.98" cy="257.782" r="2"/>
<circle clip-path="url(#clip6102)" style="fill:#af78dd; stroke:none; fill-opacity:0" cx="1256.64" cy="429.17" r="2"/>
<circle clip-path="url(#clip6102)" style="fill:#af78dd; stroke:none; fill-opacity:0" cx="1236.65" cy="628.635" r="2"/>
<circle clip-path="url(#clip6102)" style="fill:#af78dd; stroke:none; fill-opacity:0" cx="1232.22" cy="908.381" r="2"/>
<circle clip-path="url(#clip6102)" style="fill:#af78dd; stroke:none; fill-opacity:0" cx="1300.6" cy="1052.03" r="2"/>
<circle clip-path="url(#clip6102)" style="fill:#af78dd; stroke:none; fill-opacity:0" cx="1144.16" cy="1048.55" r="2"/>
<circle clip-path="url(#clip6102)" style="fill:#af78dd; stroke:none; fill-opacity:0" cx="1494.35" cy="1069.72" r="2"/>
<circle clip-path="url(#clip6102)" style="fill:#af78dd; stroke:none; fill-opacity:0" cx="1609.73" cy="1282.7" r="2"/>
<circle clip-path="url(#clip6102)" style="fill:#af78dd; stroke:none; fill-opacity:0" cx="1746.22" cy="1230.78" r="2"/>
<circle clip-path="url(#clip6102)" style="fill:#af78dd; stroke:none; fill-opacity:0" cx="1523.5" cy="1309.93" r="2"/>
<circle clip-path="url(#clip6102)" style="fill:#af78dd; stroke:none; fill-opacity:0" cx="1341.26" cy="1299.92" r="2"/>
<circle clip-path="url(#clip6102)" style="fill:#af78dd; stroke:none; fill-opacity:0" cx="1433.98" cy="1283.47" r="2"/>
<circle clip-path="url(#clip6102)" style="fill:#af78dd; stroke:none; fill-opacity:0" cx="1688.28" cy="1269.76" r="2"/>
<circle clip-path="url(#clip6102)" style="fill:#af78dd; stroke:none; fill-opacity:0" cx="962.855" cy="1073.87" r="2"/>
<circle clip-path="url(#clip6102)" style="fill:#af78dd; stroke:none; fill-opacity:0" cx="909.569" cy="1310.47" r="2"/>
<circle clip-path="url(#clip6102)" style="fill:#af78dd; stroke:none; fill-opacity:0" cx="849.196" cy="1200.34" r="2"/>
<circle clip-path="url(#clip6102)" style="fill:#af78dd; stroke:none; fill-opacity:0" cx="693.53" cy="1209.62" r="2"/>
<circle clip-path="url(#clip6102)" style="fill:#af78dd; stroke:none; fill-opacity:0" cx="1035.89" cy="1283.94" r="2"/>
<circle clip-path="url(#clip6102)" style="fill:#af78dd; stroke:none; fill-opacity:0" cx="762.058" cy="1200.94" r="2"/>
<g clip-path="url(#clip6100)">
<text style="fill:#000000; fill-opacity:1; font-family:Arial,Helvetica Neue,Helvetica,sans-serif; font-size:23px; text-anchor:middle;" transform="rotate(0, 1197.98, 266.282)" x="1197.98" y="266.282">Any</text>
</g>
<g clip-path="url(#clip6100)">
<text style="fill:#000000; fill-opacity:1; font-family:Arial,Helvetica Neue,Helvetica,sans-serif; font-size:23px; text-anchor:middle;" transform="rotate(0, 1256.64, 437.67)" x="1256.64" y="437.67">Number</text>
</g>
<g clip-path="url(#clip6100)">
<text style="fill:#000000; fill-opacity:1; font-family:Arial,Helvetica Neue,Helvetica,sans-serif; font-size:23px; text-anchor:middle;" transform="rotate(0, 1236.65, 637.135)" x="1236.65" y="637.135">Real</text>
</g>
<g clip-path="url(#clip6100)">
<text style="fill:#000000; fill-opacity:1; font-family:Arial,Helvetica Neue,Helvetica,sans-serif; font-size:23px; text-anchor:middle;" transform="rotate(0, 1232.22, 916.881)" x="1232.22" y="916.881">Integer</text>
</g>
<g clip-path="url(#clip6100)">
<text style="fill:#000000; fill-opacity:1; font-family:Arial,Helvetica Neue,Helvetica,sans-serif; font-size:23px; text-anchor:middle;" transform="rotate(0, 1300.6, 1060.53)" x="1300.6" y="1060.53">Bool</text>
</g>
<g clip-path="url(#clip6100)">
<text style="fill:#000000; fill-opacity:1; font-family:Arial,Helvetica Neue,Helvetica,sans-serif; font-size:23px; text-anchor:middle;" transform="rotate(0, 1144.16, 1057.05)" x="1144.16" y="1057.05">OffsetInteger</text>
</g>
<g clip-path="url(#clip6100)">
<text style="fill:#000000; fill-opacity:1; font-family:Arial,Helvetica Neue,Helvetica,sans-serif; font-size:23px; text-anchor:middle;" transform="rotate(0, 1494.35, 1078.22)" x="1494.35" y="1078.22">Signed</text>
</g>
<g clip-path="url(#clip6100)">
<text style="fill:#000000; fill-opacity:1; font-family:Arial,Helvetica Neue,Helvetica,sans-serif; font-size:23px; text-anchor:middle;" transform="rotate(0, 1609.73, 1291.2)" x="1609.73" y="1291.2">BigInt</text>
</g>
<g clip-path="url(#clip6100)">
<text style="fill:#000000; fill-opacity:1; font-family:Arial,Helvetica Neue,Helvetica,sans-serif; font-size:23px; text-anchor:middle;" transform="rotate(0, 1746.22, 1239.28)" x="1746.22" y="1239.28">Int128</text>
</g>
<g clip-path="url(#clip6100)">
<text style="fill:#000000; fill-opacity:1; font-family:Arial,Helvetica Neue,Helvetica,sans-serif; font-size:23px; text-anchor:middle;" transform="rotate(0, 1523.5, 1318.43)" x="1523.5" y="1318.43">Int16</text>
</g>
<g clip-path="url(#clip6100)">
<text style="fill:#000000; fill-opacity:1; font-family:Arial,Helvetica Neue,Helvetica,sans-serif; font-size:23px; text-anchor:middle;" transform="rotate(0, 1341.26, 1308.42)" x="1341.26" y="1308.42">Int32</text>
</g>
<g clip-path="url(#clip6100)">
<text style="fill:#000000; fill-opacity:1; font-family:Arial,Helvetica Neue,Helvetica,sans-serif; font-size:23px; text-anchor:middle;" transform="rotate(0, 1433.98, 1291.97)" x="1433.98" y="1291.97">Int64</text>
</g>
<g clip-path="url(#clip6100)">
<text style="fill:#000000; fill-opacity:1; font-family:Arial,Helvetica Neue,Helvetica,sans-serif; font-size:23px; text-anchor:middle;" transform="rotate(0, 1688.28, 1278.26)" x="1688.28" y="1278.26">Int8</text>
</g>
<g clip-path="url(#clip6100)">
<text style="fill:#000000; fill-opacity:1; font-family:Arial,Helvetica Neue,Helvetica,sans-serif; font-size:23px; text-anchor:middle;" transform="rotate(0, 962.855, 1082.37)" x="962.855" y="1082.37">Unsigned</text>
</g>
<g clip-path="url(#clip6100)">
<text style="fill:#000000; fill-opacity:1; font-family:Arial,Helvetica Neue,Helvetica,sans-serif; font-size:23px; text-anchor:middle;" transform="rotate(0, 909.569, 1318.97)" x="909.569" y="1318.97">UInt128</text>
</g>
<g clip-path="url(#clip6100)">
<text style="fill:#000000; fill-opacity:1; font-family:Arial,Helvetica Neue,Helvetica,sans-serif; font-size:23px; text-anchor:middle;" transform="rotate(0, 849.196, 1208.84)" x="849.196" y="1208.84">UInt16</text>
</g>
<g clip-path="url(#clip6100)">
<text style="fill:#000000; fill-opacity:1; font-family:Arial,Helvetica Neue,Helvetica,sans-serif; font-size:23px; text-anchor:middle;" transform="rotate(0, 693.53, 1218.12)" x="693.53" y="1218.12">UInt32</text>
</g>
<g clip-path="url(#clip6100)">
<text style="fill:#000000; fill-opacity:1; font-family:Arial,Helvetica Neue,Helvetica,sans-serif; font-size:23px; text-anchor:middle;" transform="rotate(0, 1035.89, 1292.44)" x="1035.89" y="1292.44">UInt64</text>
</g>
<g clip-path="url(#clip6100)">
<text style="fill:#000000; fill-opacity:1; font-family:Arial,Helvetica Neue,Helvetica,sans-serif; font-size:23px; text-anchor:middle;" transform="rotate(0, 762.058, 1209.44)" x="762.058" y="1209.44">UInt8</text>
</g>
</svg>
