<?xml version="1.0" encoding="utf-8"?>
<svg xmlns="http://www.w3.org/2000/svg" xmlns:xlink="http://www.w3.org/1999/xlink" width="600" height="400" viewBox="0 0 2400 1600">
<defs>
  <clipPath id="clip1300">
    <rect x="0" y="0" width="2400" height="1600"/>
  </clipPath>
</defs>
<path clip-path="url(#clip1300)" d="
M0 1600 L2400 1600 L2400 0 L0 0  Z
  " fill="#ffffff" fill-rule="evenodd" fill-opacity="1"/>
<defs>
  <clipPath id="clip1301">
    <rect x="480" y="0" width="1681" height="1600"/>
  </clipPath>
</defs>
<path clip-path="url(#clip1300)" d="
M141.865 1425.62 L2352.76 1425.62 L2352.76 121.675 L141.865 121.675  Z
  " fill="#ffffff" fill-rule="evenodd" fill-opacity="1"/>
<defs>
  <clipPath id="clip1302">
    <rect x="141" y="121" width="2212" height="1305"/>
  </clipPath>
</defs>
<polyline clip-path="url(#clip1302)" style="stroke:#000000; stroke-width:2; stroke-opacity:0.1; fill:none" points="
  161.871,1425.62 161.871,121.675 
  "/>
<polyline clip-path="url(#clip1302)" style="stroke:#000000; stroke-width:2; stroke-opacity:0.1; fill:none" points="
  587.533,1425.62 587.533,121.675 
  "/>
<polyline clip-path="url(#clip1302)" style="stroke:#000000; stroke-width:2; stroke-opacity:0.1; fill:none" points="
  1013.2,1425.62 1013.2,121.675 
  "/>
<polyline clip-path="url(#clip1302)" style="stroke:#000000; stroke-width:2; stroke-opacity:0.1; fill:none" points="
  1438.86,1425.62 1438.86,121.675 
  "/>
<polyline clip-path="url(#clip1302)" style="stroke:#000000; stroke-width:2; stroke-opacity:0.1; fill:none" points="
  1864.52,1425.62 1864.52,121.675 
  "/>
<polyline clip-path="url(#clip1302)" style="stroke:#000000; stroke-width:2; stroke-opacity:0.1; fill:none" points="
  2290.18,1425.62 2290.18,121.675 
  "/>
<polyline clip-path="url(#clip1302)" style="stroke:#000000; stroke-width:2; stroke-opacity:0.1; fill:none" points="
  141.865,1230.88 2352.76,1230.88 
  "/>
<polyline clip-path="url(#clip1302)" style="stroke:#000000; stroke-width:2; stroke-opacity:0.1; fill:none" points="
  141.865,992.47 2352.76,992.47 
  "/>
<polyline clip-path="url(#clip1302)" style="stroke:#000000; stroke-width:2; stroke-opacity:0.1; fill:none" points="
  141.865,754.055 2352.76,754.055 
  "/>
<polyline clip-path="url(#clip1302)" style="stroke:#000000; stroke-width:2; stroke-opacity:0.1; fill:none" points="
  141.865,515.641 2352.76,515.641 
  "/>
<polyline clip-path="url(#clip1302)" style="stroke:#000000; stroke-width:2; stroke-opacity:0.1; fill:none" points="
  141.865,277.226 2352.76,277.226 
  "/>
<polyline clip-path="url(#clip1300)" style="stroke:#000000; stroke-width:4; stroke-opacity:1; fill:none" points="
  141.865,1425.62 2352.76,1425.62 
  "/>
<polyline clip-path="url(#clip1300)" style="stroke:#000000; stroke-width:4; stroke-opacity:1; fill:none" points="
  141.865,1425.62 141.865,121.675 
  "/>
<polyline clip-path="url(#clip1300)" style="stroke:#000000; stroke-width:4; stroke-opacity:1; fill:none" points="
  161.871,1425.62 161.871,1409.97 
  "/>
<polyline clip-path="url(#clip1300)" style="stroke:#000000; stroke-width:4; stroke-opacity:1; fill:none" points="
  587.533,1425.62 587.533,1409.97 
  "/>
<polyline clip-path="url(#clip1300)" style="stroke:#000000; stroke-width:4; stroke-opacity:1; fill:none" points="
  1013.2,1425.62 1013.2,1409.97 
  "/>
<polyline clip-path="url(#clip1300)" style="stroke:#000000; stroke-width:4; stroke-opacity:1; fill:none" points="
  1438.86,1425.62 1438.86,1409.97 
  "/>
<polyline clip-path="url(#clip1300)" style="stroke:#000000; stroke-width:4; stroke-opacity:1; fill:none" points="
  1864.52,1425.62 1864.52,1409.97 
  "/>
<polyline clip-path="url(#clip1300)" style="stroke:#000000; stroke-width:4; stroke-opacity:1; fill:none" points="
  2290.18,1425.62 2290.18,1409.97 
  "/>
<polyline clip-path="url(#clip1300)" style="stroke:#000000; stroke-width:4; stroke-opacity:1; fill:none" points="
  141.865,1230.88 168.395,1230.88 
  "/>
<polyline clip-path="url(#clip1300)" style="stroke:#000000; stroke-width:4; stroke-opacity:1; fill:none" points="
  141.865,992.47 168.395,992.47 
  "/>
<polyline clip-path="url(#clip1300)" style="stroke:#000000; stroke-width:4; stroke-opacity:1; fill:none" points="
  141.865,754.055 168.395,754.055 
  "/>
<polyline clip-path="url(#clip1300)" style="stroke:#000000; stroke-width:4; stroke-opacity:1; fill:none" points="
  141.865,515.641 168.395,515.641 
  "/>
<polyline clip-path="url(#clip1300)" style="stroke:#000000; stroke-width:4; stroke-opacity:1; fill:none" points="
  141.865,277.226 168.395,277.226 
  "/>
<g clip-path="url(#clip1300)">
<text style="fill:#000000; fill-opacity:1; font-family:Arial,Helvetica Neue,Helvetica,sans-serif; font-size:48px; text-anchor:middle;" transform="rotate(0, 161.871, 1479.62)" x="161.871" y="1479.62">0</text>
</g>
<g clip-path="url(#clip1300)">
<text style="fill:#000000; fill-opacity:1; font-family:Arial,Helvetica Neue,Helvetica,sans-serif; font-size:48px; text-anchor:middle;" transform="rotate(0, 587.533, 1479.62)" x="587.533" y="1479.62">10</text>
</g>
<g clip-path="url(#clip1300)">
<text style="fill:#000000; fill-opacity:1; font-family:Arial,Helvetica Neue,Helvetica,sans-serif; font-size:48px; text-anchor:middle;" transform="rotate(0, 1013.2, 1479.62)" x="1013.2" y="1479.62">20</text>
</g>
<g clip-path="url(#clip1300)">
<text style="fill:#000000; fill-opacity:1; font-family:Arial,Helvetica Neue,Helvetica,sans-serif; font-size:48px; text-anchor:middle;" transform="rotate(0, 1438.86, 1479.62)" x="1438.86" y="1479.62">30</text>
</g>
<g clip-path="url(#clip1300)">
<text style="fill:#000000; fill-opacity:1; font-family:Arial,Helvetica Neue,Helvetica,sans-serif; font-size:48px; text-anchor:middle;" transform="rotate(0, 1864.52, 1479.62)" x="1864.52" y="1479.62">40</text>
</g>
<g clip-path="url(#clip1300)">
<text style="fill:#000000; fill-opacity:1; font-family:Arial,Helvetica Neue,Helvetica,sans-serif; font-size:48px; text-anchor:middle;" transform="rotate(0, 2290.18, 1479.62)" x="2290.18" y="1479.62">50</text>
</g>
<g clip-path="url(#clip1300)">
<text style="fill:#000000; fill-opacity:1; font-family:Arial,Helvetica Neue,Helvetica,sans-serif; font-size:48px; text-anchor:end;" transform="rotate(0, 117.865, 1248.38)" x="117.865" y="1248.38">-3</text>
</g>
<g clip-path="url(#clip1300)">
<text style="fill:#000000; fill-opacity:1; font-family:Arial,Helvetica Neue,Helvetica,sans-serif; font-size:48px; text-anchor:end;" transform="rotate(0, 117.865, 1009.97)" x="117.865" y="1009.97">0</text>
</g>
<g clip-path="url(#clip1300)">
<text style="fill:#000000; fill-opacity:1; font-family:Arial,Helvetica Neue,Helvetica,sans-serif; font-size:48px; text-anchor:end;" transform="rotate(0, 117.865, 771.555)" x="117.865" y="771.555">3</text>
</g>
<g clip-path="url(#clip1300)">
<text style="fill:#000000; fill-opacity:1; font-family:Arial,Helvetica Neue,Helvetica,sans-serif; font-size:48px; text-anchor:end;" transform="rotate(0, 117.865, 533.141)" x="117.865" y="533.141">6</text>
</g>
<g clip-path="url(#clip1300)">
<text style="fill:#000000; fill-opacity:1; font-family:Arial,Helvetica Neue,Helvetica,sans-serif; font-size:48px; text-anchor:end;" transform="rotate(0, 117.865, 294.726)" x="117.865" y="294.726">9</text>
</g>
<g clip-path="url(#clip1300)">
<text style="fill:#000000; fill-opacity:1; font-family:Arial,Helvetica Neue,Helvetica,sans-serif; font-size:84px; text-anchor:middle;" transform="rotate(0, 1247.31, 73.2)" x="1247.31" y="73.2">Random walk</text>
</g>
<g clip-path="url(#clip1300)">
<text style="fill:#000000; fill-opacity:1; font-family:Arial,Helvetica Neue,Helvetica,sans-serif; font-size:66px; text-anchor:middle;" transform="rotate(0, 1247.31, 1559.48)" x="1247.31" y="1559.48">time</text>
</g>
<polyline clip-path="url(#clip1302)" style="stroke:#009af9; stroke-width:4; stroke-opacity:1; fill:none" points="
  204.437,897.877 247.003,735.105 289.569,644.297 332.136,607.787 374.702,639.311 417.268,692.137 459.834,614.178 502.401,620.177 544.967,598.416 587.533,613.852 
  630.1,640.822 672.666,707.886 715.232,778.531 757.798,752.527 800.365,705.448 842.931,676.202 885.497,698.544 928.063,756.947 970.63,813.96 1013.2,875.556 
  1055.76,953.402 1098.33,932.707 1140.89,969.939 1183.46,1039.95 1226.03,1017.87 1268.59,896.766 1311.16,1038.04 1353.73,1271.14 1396.29,1208.97 1438.86,1025.11 
  1481.42,1094.33 1523.99,1066.86 1566.56,1079.24 1609.12,893.835 1651.69,973.176 1694.26,967.855 1736.82,1106.47 1779.39,1176.45 1821.95,1196.61 1864.52,1131.92 
  1907.09,1221.31 1949.65,1248.68 1992.22,1267.95 2034.79,1146.2 2077.35,1113.35 2119.92,1131.44 2162.48,1146.21 2205.05,1024.47 2247.62,1274.27 2290.18,1388.71 
  
  "/>
<polyline clip-path="url(#clip1302)" style="stroke:#e26f46; stroke-width:4; stroke-opacity:1; fill:none" points="
  204.437,975.088 247.003,991.562 289.569,888.833 332.136,795.878 374.702,793.434 417.268,884.044 459.834,849.5 502.401,874.483 544.967,918.102 587.533,968.635 
  630.1,915.727 672.666,988.862 715.232,1000.49 757.798,1010.22 800.365,943.328 842.931,983.294 885.497,901.808 928.063,985.94 970.63,971.757 1013.2,751.335 
  1055.76,833.463 1098.33,857.659 1140.89,790.19 1183.46,1021.89 1226.03,1023.1 1268.59,1076.06 1311.16,868.806 1353.73,755.844 1396.29,730.582 1438.86,628.466 
  1481.42,738.222 1523.99,603.704 1566.56,571.516 1609.12,645.968 1651.69,544.115 1694.26,486.328 1736.82,517.855 1779.39,433.98 1821.95,492.309 1864.52,455.8 
  1907.09,320.207 1949.65,266.29 1992.22,243.467 2034.79,158.579 2077.35,182.967 2119.92,335.57 2162.48,202.884 2205.05,219.855 2247.62,232.866 2290.18,304.628 
  
  "/>
<path clip-path="url(#clip1300)" d="
M1989.93 386.635 L2280.76 386.635 L2280.76 205.195 L1989.93 205.195  Z
  " fill="#ffffff" fill-rule="evenodd" fill-opacity="1"/>
<polyline clip-path="url(#clip1300)" style="stroke:#000000; stroke-width:4; stroke-opacity:1; fill:none" points="
  1989.93,386.635 2280.76,386.635 2280.76,205.195 1989.93,205.195 1989.93,386.635 
  "/>
<polyline clip-path="url(#clip1300)" style="stroke:#009af9; stroke-width:4; stroke-opacity:1; fill:none" points="
  2013.93,265.675 2157.93,265.675 
  "/>
<g clip-path="url(#clip1300)">
<text style="fill:#000000; fill-opacity:1; font-family:Arial,Helvetica Neue,Helvetica,sans-serif; font-size:48px; text-anchor:start;" transform="rotate(0, 2181.93, 283.175)" x="2181.93" y="283.175">y1</text>
</g>
<polyline clip-path="url(#clip1300)" style="stroke:#e26f46; stroke-width:4; stroke-opacity:1; fill:none" points="
  2013.93,326.155 2157.93,326.155 
  "/>
<g clip-path="url(#clip1300)">
<text style="fill:#000000; fill-opacity:1; font-family:Arial,Helvetica Neue,Helvetica,sans-serif; font-size:48px; text-anchor:start;" transform="rotate(0, 2181.93, 343.655)" x="2181.93" y="343.655">y2</text>
</g>
</svg>
